HIERARCHY
ROOT pelvis
{
  OFFSET 0 100 0
  CHANNELS 6 Xposition Yposition Zposition Zrotation Xrotation Yrotation
  JOINT pelvis_right_femur
  {
    OFFSET -10.78128 -3.44521 -0.5502486
    CHANNELS 3 Zrotation Xrotation Yrotation
    JOINT right_femur_tibia
    {
      OFFSET -0.8047443 -44.0398 -0.1307829
      CHANNELS 3 Zrotation Xrotation Yrotation
      JOINT right_tibia_foot
      {
        OFFSET 3.006224 -47.83518 -5
        CHANNELS 3 Zrotation Xrotation Yrotation
        End Site
        {
          OFFSET 0 -5 15
        }
      }
    }
  }
  JOINT pelvis_left_femur
  {
    OFFSET 10.78128 -3.44521 -0.5502486
    CHANNELS 3 Zrotation Xrotation Yrotation
    JOINT left_femur_tibia
    {
      OFFSET 0.8047443 -44.0398 -0.1307829
      CHANNELS 3 Zrotation Xrotation Yrotation
      JOINT left_tibia_foot
      {
        OFFSET -4.370144 -48.10324 -4.275266
        CHANNELS 3 Zrotation Xrotation Yrotation
        End Site
        {
          OFFSET 0 -5 15
        }
      }
    }
  }
  JOINT pelvis_spine1
  {
    OFFSET 0 6.468898 -3.129235
    CHANNELS 3 Zrotation Xrotation Yrotation
    JOINT spine1
    {
      OFFSET 0 23.15396 4.99043
      CHANNELS 3 Zrotation Xrotation Yrotation
      JOINT spine2
      {
        OFFSET 0 20.79997 -5.064912
        CHANNELS 3 Zrotation Xrotation Yrotation
        JOINT neck
        {
          OFFSET 0 14.38658 9.616178
          CHANNELS 3 Zrotation Xrotation Yrotation
          End Site
          {
            OFFSET 0 20 0
          }
        }
      }
      JOINT right_manubrium
      {
        OFFSET -5.722621 16.35077 3.967754
        CHANNELS 3 Zrotation Xrotation Yrotation
        JOINT right_clavicle
        {
          OFFSET -13.16364 1.694482 -4.693211
          CHANNELS 3 Zrotation Xrotation Yrotation
          JOINT right_humerus
          {
            OFFSET -28.5034 -0.3100689 -2.792744
            CHANNELS 3 Zrotation Xrotation Yrotation
            JOINT right_radius
            {
              OFFSET -25.15693 0.02248979 -1.271978
              CHANNELS 3 Zrotation Xrotation Yrotation
              End Site
              {
                OFFSET -15 0 0
              }
            }
          }
        }
      }
      JOINT left_manubrium
      {
        OFFSET 5.722621 16.35077 3.967754
        CHANNELS 3 Zrotation Xrotation Yrotation
        JOINT left_clavicle
        {
          OFFSET 13.16364 1.694482 -4.693211
          CHANNELS 3 Zrotation Xrotation Yrotation
          JOINT left_humerus
          {
            OFFSET 29.39168 -1.063119 -2.237045
            CHANNELS 3 Zrotation Xrotation Yrotation
            JOINT left_radius
            {
              OFFSET 24.59957 -0.9528479 0.9047498
              CHANNELS 3 Zrotation Xrotation Yrotation
              End Site
              {
                OFFSET 15 -0 -0
              }
            }
          }
        }
      }
    }
  }
}
MOTION
Frames: 23
Frame Time: 0.0416666666667
435.6668 100.599 3056.985 0.3028512 -6.899411 -0.7795249 3.250347 19.04156 1.630679 -0 17.83995 -0 -4.819945 -11.62391 -0.7679651 0.8251169 -22.68064 -4.581812 -0 15.2053 -0 -1.9251 -6.136764 19.4706 1.178668 -1.220395 8.31156 0.5150763 13.93084 -6.012548 1.790075 21.55252 1.674675 -0.8401862 -22.80294 5.892535 -6.561183 -29.61953 12.2985 93.03963 24.86854 -10.21792 -0 0 23.32977 -19.29608 8.233537 9.710089 1.991338 -20.11325 -3.320763 -91.46177 9.698144 32.46182 0 0 -9.615911 12.87252 15.36751 -5.892042
436.5889 100.1775 3063.728 0.52431 -6.827773 -0.9658199 2.502078 19.53993 1.717108 -0 23.85886 -0 -4.280514 -7.996888 -0.5395007 -0.3292282 -21.26506 -5.396491 -0 14.56012 -0 -1.954315 -6.477414 19.57713 1.14549 -1.222044 8.513065 0.42577 13.94216 -5.86483 1.818185 21.50775 1.568332 -0.8745647 -22.54181 5.807006 -6.378991 -29.73842 12.33792 92.50145 24.9636 -9.618289 -0 0 23.96557 -19.41432 8.424998 9.914006 1.918048 -19.90192 -3.233952 -91.66242 9.669138 32.90801 0 0 -9.15195 12.62529 15.29057 -5.550563
437.5603 100.3298 3070.64 0.7566172 -7.167729 -0.9037041 1.804894 18.56542 1.72407 -0 32.12486 -0 -4.194905 -3.143497 -0.570711 -1.853912 -18.37962 -6.503041 -0 15.80798 -0 -1.804706 -6.967066 19.57964 1.109698 -1.216496 8.528661 0.4181909 13.92546 -5.848943 1.805069 21.48381 1.624772 -0.8257936 -22.51502 5.817732 -6.245464 -29.63854 12.35294 92.33852 25.05041 -9.584766 -0 0 23.93048 -19.46139 8.473135 9.971279 1.971431 -19.90412 -3.19442 -91.63199 9.680212 32.78127 0 0 -9.198659 12.6499 15.15113 -5.528101
438.5627 101.1482 3077.474 1.048694 -7.68426 -0.5295076 1.082086 15.70483 1.605613 -0 41.47986 -0 -4.500823 2.371889 -0.746514 -3.601208 -14.25412 -7.790972 -0 18.05057 -0 -1.356489 -7.820831 19.41284 1.079703 -1.198106 8.349597 0.501416 13.8641 -5.965788 1.754433 21.49919 1.838036 -0.7074114 -22.78423 5.944445 -6.222017 -29.35601 12.32689 92.61736 25.16188 -10.11921 -0 0 23.21774 -19.36133 8.30254 9.824394 2.149064 -20.10404 -3.176284 -91.404 9.71062 32.13372 0 0 -9.679286 13.03084 14.99978 -5.951417
439.5823 102.4933 3083.951 1.44071 -8.055253 0.1845418 0.2928038 10.78899 1.384188 -0 49.65012 -0 -4.799551 7.420213 -1.034947 -5.266369 -9.580005 -8.965678 -0 19.93581 -0 -0.7176583 -9.333214 19.04458 1.068831 -1.164789 7.971718 0.6811519 13.74983 -6.215822 1.672854 21.56954 2.188142 -0.5387663 -23.3908 6.19935 -6.373711 -28.94023 12.24719 93.40968 25.29373 -11.21585 -0 0 21.8483 -19.05177 7.855691 9.42546 2.436828 -20.48523 -3.165426 -91.01623 9.736805 31.0391 0 0 -10.51882 13.81828 14.89075 -6.907372
440.6007 103.9792 3089.908 1.870287 -8.100058 1.188358 -0.4579765 4.332551 1.14008 -0 54.14006 -0 -4.587445 10.31763 -1.647073 -6.447746 -5.145815 -9.716544 -0 20.16378 -0 -0.2471081 -11.54163 18.45606 1.08861 -1.119132 7.417718 0.9463056 13.58755 -6.582028 1.57063 21.70011 2.635252 -0.3426977 -24.31316 6.572862 -6.735579 -28.45433 12.11245 94.71824 25.39929 -12.79936 -0 0 19.93309 -18.52677 7.127904 8.777977 2.802452 -21.01249 -3.160687 -90.52151 9.745706 29.62156 0 0 -11.62058 14.97213 14.85705 -8.362494
441.5789 105.1396 3095.371 2.159009 -8.06273 2.346417 -0.8770455 -2.445317 0.8675157 -0 53.77317 -0 -4.010013 9.926127 -2.749537 -6.833928 -1.128672 -9.950126 -0 18.43699 -0 -0.1333912 -13.95344 17.7316 1.137047 -1.066787 6.730915 1.270519 13.39252 -7.033915 1.455124 21.87982 3.144079 -0.1274627 -25.46004 7.034547 -7.271943 -27.92946 11.93734 96.44037 25.4145 -14.7466 -0 0 17.62264 -17.86009 6.185101 7.952622 3.214313 -21.64771 -3.17461 -89.95629 9.74877 27.97933 0 0 -12.92437 16.36165 14.87701 -10.14664
442.4623 105.6593 3100.487 2.199287 -8.21814 3.493408 -0.7829537 -8.630661 0.4311066 -0 49.00905 -0 -3.821248 7.015386 -4.069413 -6.485249 2.856914 -9.814253 -0 15.55169 -0 -0.1253999 -16.03096 17.06107 1.195891 -1.013525 5.946748 1.630609 13.18107 -7.550176 1.324512 22.08222 3.711525 0.1257057 -26.71807 7.553017 -7.87532 -27.32591 11.74915 98.41521 25.3029 -16.97075 -0 0 14.99846 -17.16221 5.14038 7.047344 3.668459 -22.38241 -3.223439 -89.30589 9.766455 26.09062 0 0 -14.47061 17.84782 14.87083 -12.05447
443.2105 105.4607 3105.469 2.044945 -8.241151 4.494609 -0.3566942 -14.23774 -0.2772114 -0 40.79233 -0 -4.256111 3.737183 -5.111946 -5.816812 6.928267 -9.466396 -0 12.49809 -0 0.005740106 -17.73706 16.48457 1.242274 -0.9620796 5.10128 2.010733 12.96051 -8.110907 1.176648 22.27535 4.343935 0.4390881 -27.99519 8.10894 -8.421228 -26.59198 11.5735 100.4628 25.09426 -19.38256 -0 0 12.13295 -16.49938 4.102509 6.138932 4.177917 -23.20591 -3.294365 -88.55994 9.793638 23.91982 0 0 -16.27723 19.3537 14.74713 -13.95505
443.833 104.6599 3110.591 1.785803 -7.479306 5.290201 0.06979124 -19.46334 -1.180274 -0 30.33449 -0 -4.765239 1.952319 -5.475785 -5.278202 10.63081 -8.949812 -0 10.12903 -0 0.08720519 -19.24484 15.81345 1.26156 -0.9136922 4.25976 2.38984 12.73781 -8.676554 1.021067 22.42573 5.013153 0.8065427 -29.19972 8.676908 -8.809898 -25.74084 11.4277 102.3752 24.87003 -21.80313 -0 0 9.226319 -15.88822 3.175858 5.291644 4.735596 -24.05916 -3.346217 -87.77097 9.80046 21.57404 0 0 -18.21434 20.81283 14.45146 -15.74743
444.3934 103.4681 3116.1 1.486303 -5.790365 5.908293 0.3301663 -23.97231 -1.981696 -0 19.84618 -0 -4.740866 2.076491 -5.165113 -5.083552 13.37882 -8.314472 -0 9.207587 -0 -0.2484303 -20.49141 14.87871 1.25003 -0.8752151 3.508984 2.736489 12.54385 -9.199156 0.8758892 22.49788 5.649254 1.189877 -30.18891 9.19249 -8.963261 -24.839 11.33228 103.9295 24.69033 -24.00338 -0 0 6.580365 -15.37784 2.509051 4.595818 5.293437 -24.8651 -3.369759 -87.0064 9.765832 19.26376 0 0 -20.10984 22.06714 13.99416 -17.23278
444.9495 102.0729 3122.091 1.185942 -3.973327 6.401855 0.5885298 -27.01354 -2.381806 -0 11.76486 -0 -4.311705 3.01704 -4.709639 -5.087036 15.16379 -7.71483 -0 10.27944 -0 -1.061068 -21.0665 13.80535 1.209453 -0.858626 2.917325 3.017285 12.43003 -9.647409 0.7548996 22.47131 6.175044 1.539403 -30.78777 9.557045 -8.835109 -23.94821 11.31384 104.9601 24.54027 -25.81642 -0 0 4.433592 -15.08932 2.265579 4.157018 5.775918 -25.58548 -3.424314 -86.27643 9.699762 17.1522 0 0 -21.90993 22.88497 13.45833 -18.1292
445.5063 100.6598 3128.549 0.8956208 -2.940146 6.774972 1.132624 -28.10997 -2.32715 -0 6.9974 -0 -4.126111 3.700295 -4.547994 -5.031742 16.45338 -7.280262 -0 13.7191 -0 -2.036162 -20.55562 12.89257 1.144254 -0.8680865 2.503792 3.212182 12.4222 -10.00976 0.662009 22.3624 6.550459 1.820027 -30.9141 9.708349 -8.45608 -23.10705 11.37814 105.4453 24.36821 -27.19106 -0 0 2.853055 -15.11523 2.48543 4.019538 6.125248 -26.21454 -3.575913 -85.56088 9.637328 15.30476 0 0 -23.63261 23.13337 12.95325 -18.28495
446.0334 99.47179 3135.422 0.6404136 -2.966343 6.988872 2.038718 -27.30021 -1.902695 -0 5.237117 -0 -4.504256 3.87244 -4.739976 -4.82526 17.44444 -7.032813 -0 19.59749 -0 -2.914263 -18.90621 12.34077 1.064721 -0.8941608 2.262547 3.315862 12.49431 -10.26829 0.5999977 22.21493 6.772038 2.014471 -30.65027 9.670311 -7.940243 -22.37989 11.49178 105.4771 24.17394 -28.10488 -0 0 1.842989 -15.40778 3.027652 4.131649 6.32598 -26.71345 -3.809827 -84.90702 9.616048 13.81966 0 0 -25.15822 22.88372 12.5507 -17.8111
446.4899 98.76502 3142.612 0.4657713 -3.940965 6.992509 3.198397 -24.77502 -1.177328 -0 5.943361 -0 -5.350983 3.606006 -5.204731 -4.486113 17.89622 -6.935849 -0 27.68995 -0 -3.620417 -16.31364 12.26237 0.9850905 -0.9256347 2.196157 3.326916 12.60729 -10.3946 0.5731064 22.0678 6.843545 2.11289 -30.13852 9.501706 -7.411762 -21.86158 11.61456 105.1492 24.00075 -28.5019 -0 0 1.447531 -15.85518 3.7069 4.417399 6.3822 -27.01486 -4.061861 -84.41403 9.657879 12.86524 0 0 -26.2555 22.28979 12.28148 -16.92327
446.8421 98.73783 3149.946 0.4043001 -5.56319 6.745098 4.428083 -20.77297 -0.2076773 -0 8.410229 -0 -6.376921 3.054972 -5.768194 -4.067016 17.21823 -6.909713 -0 37.40362 -0 -4.158004 -13.13289 12.73969 0.9180895 -0.9580011 2.307904 3.246533 12.74057 -10.37161 0.5821602 21.94195 6.769245 2.112216 -29.48583 9.246053 -6.952988 -21.62638 11.72631 104.5283 23.87461 -28.34276 -0 0 1.700743 -16.38066 4.400976 4.827012 6.300496 -27.07767 -4.2852 -84.15493 9.765073 12.57187 0 0 -26.75954 21.47144 12.15653 -15.7888
447.0809 99.43874 3157.173 0.4532083 -7.345461 6.237998 5.504305 -15.72211 0.9153419 -0 11.55735 -0 -7.198973 2.341296 -6.149073 -3.617738 14.63262 -6.822835 -0 47.38926 -0 -4.54412 -9.920342 13.76757 0.8745443 -0.9917237 2.595651 3.079965 12.8881 -10.19684 0.6256382 21.84597 6.55264 2.012594 -28.76285 8.929935 -6.613528 -21.72094 11.82178 103.6698 23.79867 -27.61901 -0 0 2.608614 -16.93762 5.042392 5.328042 6.086881 -26.89046 -4.454799 -84.17228 9.920685 13.01404 0 0 -26.58862 20.51412 12.18211 -14.52766
447.2354 100.6865 3164.05 0.5609128 -8.721901 5.503875 6.232456 -10.30431 2.021314 -0 13.99474 -0 -7.511794 1.403023 -6.070432 -3.126563 9.689162 -6.528624 -0 55.48926 -0 -4.776269 -7.317221 15.14088 0.864045 -1.028856 3.044539 2.840291 13.04799 -9.883905 0.7010136 21.78256 6.19928 1.816458 -28.02512 8.573738 -6.425869 -22.16313 11.90125 102.6422 23.76354 -26.36701 -0 0 4.13241 -17.48167 5.590427 5.88454 5.750588 -26.46727 -4.557628 -84.48417 10.08962 14.20427 0 0 -25.73237 19.4959 12.36499 -13.24902
447.3635 102.1006 3170.455 0.6496503 -9.397453 4.603403 6.547778 -5.213269 2.904266 -0 14.77325 -0 -7.281188 -0.1142508 -5.525562 -2.493476 2.940751 -5.974688 -0 59.57724 -0 -4.837073 -5.724057 16.50341 0.8922919 -1.070281 3.617463 2.551707 13.21583 -9.467061 0.8042858 21.75068 5.724598 1.532976 -27.31884 8.197894 -6.402692 -22.92312 11.96569 101.5391 23.75404 -24.69424 -0 0 6.156849 -17.96196 6.02392 6.448036 5.311103 -25.8525 -4.591612 -85.06974 10.22783 16.0536 0 0 -24.27518 18.4927 12.70538 -12.05509
447.5235 103.261 3176.429 0.6569628 -9.581198 3.604395 6.544522 -0.7492018 3.437099 -0 14.09504 -0 -6.74157 -2.632825 -4.834368 -1.621323 -4.182091 -5.25214 -0 58.73816 -0 -4.716757 -5.10239 17.62532 0.9560648 -1.113897 4.265705 2.242175 13.38325 -8.99007 0.9305987 21.74338 5.154579 1.180102 -26.66409 7.819124 -6.520665 -23.92074 12.01628 100.4382 23.76373 -22.74864 -0 0 8.52009 -18.33851 6.352772 6.976191 4.797774 -25.10593 -4.562638 -85.86978 10.30264 18.38195 0 0 -22.3752 17.54999 13.18167 -10.9995
447.7578 103.875 3182.106 0.5439241 -9.66316 2.571274 6.378425 3.233102 3.564517 -0 12.89941 -0 -6.24103 -6.126699 -4.280363 -0.5305219 -10.39758 -4.509318 -0 53.45431 -0 -4.392193 -5.124585 18.48841 1.041275 -1.154499 4.956574 1.929493 13.53965 -8.482032 1.075836 21.74651 4.517512 0.7810561 -26.04309 7.445048 -6.715349 -25.05742 12.05615 99.34166 23.81248 -20.63476 -0 0 11.09944 -18.60128 6.619714 7.459377 4.241897 -24.26941 -4.471541 -86.81996 10.30334 21.00281 0 0 -20.17767 16.66512 13.74103 -10.06267
448.0981 103.855 3187.664 0.3082443 -9.738472 1.568759 6.135953 7.021801 3.243694 -0 12.0242 -0 -6.070526 -9.900002 -3.833877 0.6157537 -15.20293 -3.884015 -0 44.99955 -0 -3.826069 -5.399315 19.08658 1.126626 -1.185932 5.682974 1.616448 13.67438 -7.948961 1.23633 21.74302 3.839905 0.361114 -25.4132 7.076483 -6.899712 -26.24396 12.09154 98.17754 23.93723 -18.38295 -0 0 13.83868 -18.77104 6.880737 7.920831 3.672112 -23.3587 -4.308899 -87.87253 10.23344 23.77375 0 0 -17.77416 15.80866 14.30755 -9.181464
448.5656 103.315 3193.285 0.04054377 -9.525754 0.6707668 5.76569 10.75248 2.550582 -0 11.83871 -0 -6.228908 -12.84882 -3.241597 1.526843 -18.69546 -3.5198 -0 35.13248 -0 -3.056051 -5.62365 19.36837 1.189942 -1.204747 6.437981 1.301298 13.7792 -7.394246 1.404792 21.7201 3.157539 -0.0482901 -24.73874 6.717357 -6.991909 -27.39017 12.13055 96.87703 24.15397 -16.02721 -0 0 16.66289 -18.88909 7.180407 8.389707 3.120815 -22.39912 -4.07219 -88.97069 10.10576 26.54097 0 0 -15.27658 14.96287 14.79846 -8.300242
